<?xml version="1.0" encoding="utf-8"?>
<!-- Generator: Adobe Illustrator 24.3.0, SVG Export Plug-In . SVG Version: 6.00 Build 0)  -->
<svg version="1.1" id="Ebene_1" xmlns="http://www.w3.org/2000/svg" xmlns:xlink="http://www.w3.org/1999/xlink" x="0px" y="0px"
	 viewBox="0 0 250 150" style="enable-background:new 0 0 250 150;" xml:space="preserve">
<style type="text/css">
	.st0{fill:#FFFFFF;}
	.st1{fill:#1B53A8;}
	.st2{fill:none;stroke:#1B53A8;stroke-miterlimit:10;}
	.st3{fill:none;stroke:#1B53A8;stroke-linecap:round;stroke-miterlimit:10;}
</style>
<g>
	<path class="st0" d="M75.46,83.76c-0.89,0-1.83-0.16-2.81-0.49s-1.79-0.88-2.45-1.65c-0.14-0.17-0.19-0.36-0.17-0.55
		c0.03-0.2,0.13-0.36,0.32-0.5c0.17-0.12,0.36-0.16,0.55-0.13c0.2,0.04,0.36,0.13,0.48,0.28c0.5,0.58,1.1,0.99,1.81,1.22
		c0.71,0.23,1.49,0.35,2.33,0.35c1.44,0,2.46-0.26,3.06-0.77c0.6-0.52,0.9-1.12,0.9-1.8c0-0.67-0.32-1.22-0.97-1.66
		s-1.63-0.75-2.97-0.94c-1.72-0.24-2.99-0.7-3.81-1.39c-0.82-0.69-1.24-1.48-1.24-2.39c0-0.86,0.21-1.58,0.64-2.17
		c0.43-0.59,1.02-1.04,1.76-1.34c0.75-0.3,1.6-0.45,2.56-0.45c1.17,0,2.15,0.21,2.96,0.63c0.81,0.42,1.46,0.98,1.96,1.69
		c0.14,0.17,0.18,0.36,0.14,0.55c-0.04,0.2-0.18,0.36-0.4,0.48c-0.17,0.09-0.35,0.11-0.54,0.08c-0.19-0.03-0.35-0.14-0.49-0.31
		c-0.43-0.55-0.95-0.97-1.56-1.25c-0.61-0.28-1.32-0.42-2.12-0.42c-1.08,0-1.92,0.23-2.52,0.7c-0.6,0.46-0.9,1.02-0.9,1.67
		c0,0.45,0.12,0.84,0.37,1.17c0.25,0.33,0.66,0.62,1.22,0.85c0.57,0.23,1.32,0.42,2.26,0.55c1.29,0.17,2.3,0.46,3.05,0.88
		s1.28,0.89,1.6,1.43C80.84,78.6,81,79.18,81,79.8c0,0.81-0.26,1.51-0.77,2.11s-1.19,1.06-2.03,1.38
		C77.35,83.6,76.44,83.76,75.46,83.76z"/>
	<path class="st0" d="M85.25,89.63c-0.22,0-0.41-0.07-0.55-0.22c-0.15-0.15-0.22-0.33-0.22-0.55V76.42
		c0.03-1.36,0.36-2.56,0.99-3.62c0.63-1.06,1.48-1.89,2.56-2.51s2.29-0.93,3.63-0.93c1.37,0,2.6,0.31,3.69,0.94
		c1.09,0.63,1.95,1.48,2.57,2.57c0.63,1.09,0.94,2.32,0.94,3.69c0,1.36-0.31,2.58-0.94,3.67c-0.63,1.09-1.48,1.95-2.57,2.57
		c-1.09,0.63-2.32,0.94-3.69,0.94c-1.24,0-2.35-0.27-3.33-0.8c-0.99-0.53-1.75-1.24-2.3-2.14v8.03c0,0.22-0.07,0.41-0.21,0.55
		C85.67,89.56,85.49,89.63,85.25,89.63z M91.65,82.32c1.08,0,2.05-0.25,2.9-0.76c0.85-0.51,1.52-1.19,2.02-2.06
		c0.5-0.87,0.75-1.84,0.75-2.92c0-1.1-0.25-2.08-0.75-2.95c-0.5-0.87-1.17-1.55-2.02-2.06c-0.85-0.51-1.81-0.76-2.9-0.76
		c-1.06,0-2.02,0.25-2.88,0.76c-0.86,0.51-1.53,1.19-2.02,2.06c-0.49,0.87-0.73,1.85-0.73,2.95c0,1.08,0.24,2.06,0.73,2.92
		c0.49,0.87,1.16,1.55,2.02,2.06C89.63,82.07,90.59,82.32,91.65,82.32z"/>
	<path class="st0" d="M109.16,83.76c-1.37,0-2.6-0.31-3.69-0.94c-1.09-0.63-1.95-1.48-2.57-2.57c-0.63-1.09-0.94-2.31-0.94-3.67
		c0-1.37,0.31-2.6,0.94-3.69c0.63-1.09,1.48-1.95,2.57-2.57c1.09-0.63,2.32-0.94,3.69-0.94c1.37,0,2.6,0.31,3.68,0.94
		c1.08,0.63,1.93,1.48,2.56,2.57c0.63,1.09,0.94,2.32,0.94,3.69l-0.64,1.03c0,1.17-0.29,2.21-0.86,3.14
		c-0.58,0.93-1.35,1.66-2.33,2.2C111.52,83.49,110.41,83.76,109.16,83.76z M109.16,82.32c1.08,0,2.05-0.25,2.9-0.76
		c0.85-0.51,1.52-1.19,2.01-2.06c0.49-0.87,0.73-1.84,0.73-2.92c0-1.1-0.24-2.08-0.73-2.95c-0.49-0.87-1.16-1.55-2.01-2.06
		c-0.85-0.51-1.81-0.76-2.9-0.76c-1.06,0-2.02,0.25-2.88,0.76c-0.86,0.51-1.54,1.19-2.03,2.06c-0.5,0.87-0.75,1.85-0.75,2.95
		c0,1.08,0.25,2.06,0.75,2.92c0.5,0.87,1.18,1.55,2.03,2.06C107.13,82.07,108.09,82.32,109.16,82.32z M115.59,83.61
		c-0.24,0-0.43-0.07-0.58-0.22c-0.15-0.14-0.22-0.33-0.22-0.55v-4.71l0.49-1.54h1.06v6.25c0,0.22-0.07,0.41-0.21,0.55
		C115.99,83.53,115.81,83.61,115.59,83.61z"/>
	<path class="st0" d="M126.43,83.76c-1.34,0-2.54-0.32-3.59-0.95c-1.06-0.63-1.89-1.49-2.5-2.57c-0.61-1.08-0.91-2.3-0.91-3.66
		c0-1.37,0.28-2.6,0.85-3.68c0.57-1.08,1.35-1.93,2.34-2.56c1-0.63,2.14-0.94,3.42-0.94c1.1,0,2.1,0.21,3.01,0.63
		c0.91,0.42,1.7,1.06,2.37,1.92c0.14,0.17,0.19,0.35,0.16,0.54c-0.04,0.19-0.15,0.34-0.34,0.46c-0.15,0.12-0.33,0.17-0.51,0.14
		c-0.19-0.03-0.35-0.12-0.49-0.3c-1.1-1.3-2.5-1.96-4.2-1.96c-1.01,0-1.9,0.25-2.66,0.75s-1.36,1.18-1.78,2.03
		c-0.42,0.86-0.63,1.84-0.63,2.96c0,1.08,0.23,2.06,0.69,2.92c0.46,0.87,1.1,1.55,1.92,2.06c0.81,0.51,1.76,0.76,2.84,0.76
		c0.7,0,1.37-0.1,1.99-0.31c0.63-0.21,1.17-0.52,1.63-0.95c0.15-0.14,0.33-0.21,0.52-0.23c0.19-0.02,0.35,0.04,0.49,0.18
		c0.17,0.15,0.26,0.33,0.27,0.53s-0.06,0.36-0.22,0.5C129.86,83.19,128.3,83.76,126.43,83.76z"/>
	<path class="st0" d="M141.69,83.73c-1.36,0-2.56-0.3-3.62-0.91c-1.06-0.61-1.88-1.45-2.48-2.54c-0.6-1.08-0.9-2.32-0.9-3.71
		c0-1.41,0.28-2.65,0.85-3.72c0.57-1.07,1.35-1.92,2.34-2.54s2.14-0.93,3.42-0.93c1.27,0,2.39,0.3,3.37,0.89
		c0.98,0.59,1.74,1.41,2.29,2.45s0.82,2.23,0.82,3.59c0,0.22-0.07,0.4-0.21,0.53c-0.14,0.13-0.32,0.19-0.54,0.19h-11.33V75.7h11.74
		l-1.13,0.85c0.03-1.11-0.15-2.1-0.57-2.96c-0.41-0.86-1-1.53-1.76-2.02c-0.76-0.49-1.66-0.73-2.69-0.73
		c-0.98,0-1.85,0.24-2.61,0.73c-0.76,0.49-1.36,1.16-1.8,2.02c-0.44,0.86-0.66,1.85-0.66,2.99c0,1.12,0.23,2.1,0.69,2.96
		c0.46,0.86,1.11,1.53,1.93,2.02c0.82,0.49,1.77,0.73,2.83,0.73c0.67,0,1.34-0.12,2.02-0.35c0.68-0.23,1.21-0.54,1.61-0.91
		c0.14-0.14,0.3-0.21,0.5-0.22s0.36,0.05,0.5,0.17c0.19,0.15,0.29,0.33,0.3,0.51c0.01,0.19-0.07,0.36-0.24,0.51
		c-0.55,0.5-1.27,0.91-2.15,1.24S142.5,83.73,141.69,83.73z"/>
	<path class="st1" d="M156.85,83.76c-1.34,0-2.54-0.32-3.59-0.95c-1.05-0.63-1.89-1.49-2.5-2.57c-0.61-1.08-0.91-2.3-0.91-3.66
		c0-1.37,0.28-2.6,0.85-3.68s1.35-1.93,2.34-2.56c1-0.63,2.14-0.94,3.42-0.94c1.1,0,2.1,0.21,3.01,0.63
		c0.91,0.42,1.7,1.06,2.37,1.92c0.14,0.17,0.19,0.35,0.16,0.54s-0.15,0.34-0.33,0.46c-0.15,0.12-0.33,0.17-0.51,0.14
		c-0.19-0.03-0.35-0.12-0.49-0.3c-1.1-1.3-2.5-1.96-4.2-1.96c-1.01,0-1.9,0.25-2.66,0.75s-1.36,1.18-1.78,2.03
		c-0.42,0.86-0.63,1.84-0.63,2.96c0,1.08,0.23,2.06,0.7,2.92c0.46,0.87,1.1,1.55,1.92,2.06c0.82,0.51,1.76,0.76,2.84,0.76
		c0.7,0,1.37-0.1,1.99-0.31c0.63-0.21,1.17-0.52,1.63-0.95c0.15-0.14,0.33-0.21,0.51-0.23s0.35,0.04,0.49,0.18
		c0.17,0.15,0.26,0.33,0.27,0.53c0.01,0.2-0.06,0.36-0.22,0.5C160.28,83.19,158.72,83.76,156.85,83.76z"/>
	<path class="st1" d="M168.72,83.61c-0.65,0-1.23-0.18-1.74-0.54s-0.9-0.86-1.18-1.49s-0.42-1.37-0.42-2.21V64.28
		c0-0.24,0.07-0.43,0.22-0.57c0.15-0.14,0.33-0.21,0.55-0.21c0.24,0,0.43,0.07,0.57,0.21c0.14,0.14,0.21,0.33,0.21,0.57v15.08
		c0,0.79,0.17,1.44,0.5,1.94c0.33,0.51,0.77,0.76,1.3,0.76h0.64c0.19,0,0.34,0.07,0.46,0.21c0.12,0.14,0.18,0.33,0.18,0.57
		c0,0.22-0.07,0.41-0.21,0.55c-0.14,0.15-0.33,0.22-0.57,0.22H168.72z"/>
	<path class="st1" d="M178.5,83.76c-1.37,0-2.6-0.31-3.69-0.94c-1.09-0.63-1.95-1.48-2.57-2.57c-0.63-1.09-0.94-2.31-0.94-3.67
		c0-1.37,0.31-2.6,0.94-3.69c0.63-1.09,1.48-1.95,2.57-2.57c1.09-0.63,2.32-0.94,3.69-0.94c1.37,0,2.6,0.31,3.68,0.94
		c1.08,0.63,1.93,1.48,2.56,2.57c0.63,1.09,0.94,2.32,0.94,3.69c0,1.36-0.31,2.58-0.94,3.67c-0.63,1.09-1.48,1.95-2.56,2.57
		C181.1,83.45,179.87,83.76,178.5,83.76z M178.5,82.32c1.08,0,2.05-0.25,2.9-0.76c0.85-0.51,1.52-1.19,2.01-2.06
		c0.49-0.87,0.73-1.85,0.73-2.95c0-1.08-0.25-2.05-0.73-2.92c-0.49-0.87-1.16-1.55-2.01-2.06c-0.85-0.51-1.81-0.76-2.9-0.76
		c-1.06,0-2.02,0.25-2.88,0.76c-0.86,0.51-1.54,1.19-2.03,2.06c-0.5,0.87-0.75,1.85-0.75,2.95c0,1.08,0.25,2.06,0.75,2.92
		c0.5,0.87,1.18,1.55,2.03,2.06C176.47,82.07,177.43,82.32,178.5,82.32z"/>
	<path class="st1" d="M195.79,83.79c-1.24,0-2.34-0.25-3.32-0.76s-1.75-1.25-2.33-2.23c-0.58-0.98-0.86-2.17-0.86-3.58V70.3
		c0-0.22,0.07-0.41,0.22-0.55c0.15-0.15,0.33-0.22,0.55-0.22c0.22,0,0.41,0.07,0.55,0.22c0.14,0.15,0.22,0.33,0.22,0.55v6.92
		c0,1.12,0.22,2.05,0.66,2.79s1.03,1.3,1.78,1.67c0.75,0.37,1.59,0.55,2.54,0.55c0.93,0,1.76-0.18,2.5-0.54
		c0.74-0.36,1.32-0.84,1.75-1.45c0.43-0.61,0.64-1.3,0.64-2.07h1.29c-0.07,1.06-0.39,2.02-0.95,2.87c-0.57,0.85-1.3,1.52-2.2,2.01
		C197.92,83.54,196.91,83.79,195.79,83.79z M201.46,83.61c-0.22,0-0.41-0.07-0.55-0.22c-0.15-0.14-0.22-0.33-0.22-0.55V70.3
		c0-0.24,0.07-0.43,0.22-0.57c0.15-0.14,0.33-0.21,0.55-0.21c0.24,0,0.43,0.07,0.57,0.21c0.14,0.14,0.21,0.33,0.21,0.57v12.54
		c0,0.22-0.07,0.41-0.21,0.55C201.88,83.53,201.7,83.61,201.46,83.61z"/>
	<path class="st1" d="M213.29,83.76c-1.37,0-2.6-0.31-3.69-0.94c-1.09-0.63-1.95-1.48-2.57-2.57c-0.63-1.09-0.94-2.32-0.94-3.69
		c0-1.37,0.31-2.6,0.94-3.68c0.63-1.08,1.48-1.93,2.57-2.56c1.09-0.63,2.32-0.94,3.69-0.94c1.24,0,2.35,0.27,3.33,0.8
		c0.99,0.53,1.75,1.24,2.3,2.14v-8.03c0-0.24,0.07-0.43,0.22-0.57c0.15-0.14,0.33-0.21,0.55-0.21c0.24,0,0.43,0.07,0.57,0.21
		c0.14,0.14,0.21,0.33,0.21,0.57v12.43c-0.02,1.34-0.34,2.54-0.98,3.6s-1.49,1.9-2.56,2.52C215.87,83.45,214.65,83.76,213.29,83.76z
		 M213.29,82.32c1.08,0,2.05-0.25,2.9-0.76c0.85-0.51,1.52-1.19,2.01-2.06c0.49-0.87,0.73-1.85,0.73-2.95c0-1.1-0.24-2.08-0.73-2.93
		c-0.49-0.86-1.16-1.54-2.01-2.05c-0.85-0.51-1.81-0.76-2.9-0.76c-1.06,0-2.02,0.25-2.88,0.76c-0.86,0.51-1.54,1.19-2.03,2.05
		c-0.5,0.86-0.75,1.84-0.75,2.93c0,1.1,0.25,2.08,0.75,2.95c0.5,0.87,1.18,1.55,2.03,2.06C211.27,82.07,212.23,82.32,213.29,82.32z"
		/>
</g>
<g>
	<path class="st2" d="M57.77,58.38c0,0-16.36-4.92-24.17,22.32l6.07,5.13C39.68,85.83,65.09,75.78,57.77,58.38z"/>
	<line class="st3" x1="50.09" y1="59.3" x2="58.38" y2="66.31"/>
	<circle class="st3" cx="50.2" cy="67.7" r="3.75"/>
	<line class="st3" x1="44.17" y1="74.71" x2="34.6" y2="86.04"/>
	<path class="st3" d="M50.99,79.18c0,0,5.38,6.45-6.5,14.82l-2.23-8.49"/>
	<path class="st2" d="M38.67,68.81c0,0-7.26-4.23-13.53,8.88l8.75,0.79"/>
</g>
<g>
</g>
<g>
</g>
<g>
</g>
<g>
</g>
<g>
</g>
<g>
</g>
<g>
</g>
<g>
</g>
<g>
</g>
<g>
</g>
<g>
</g>
<g>
</g>
<g>
</g>
<g>
</g>
<g>
</g>
</svg>
