<?xml version="1.0" encoding="utf-8"?>
<!-- Generator: Adobe Illustrator 18.0.0, SVG Export Plug-In . SVG Version: 6.00 Build 0)  -->
<!DOCTYPE svg PUBLIC "-//W3C//DTD SVG 1.1//EN" "http://www.w3.org/Graphics/SVG/1.1/DTD/svg11.dtd">
<svg version="1.1" id="Layer_1" xmlns="http://www.w3.org/2000/svg" xmlns:xlink="http://www.w3.org/1999/xlink" x="0px" y="0px"
	 viewBox="0 0 64 64" enable-background="new 0 0 64 64" xml:space="preserve">
<path d="M58.3,10.1C55.7,9.2,51.6,8,47,8c-6.8,0-12.6,2.5-14.9,3.7c-1-0.5-2.3-1-3.8-1.6C25.7,9.2,21.6,8,17,8
	C8.3,8,1.3,12.1,1,12.3l-1,0.6V56h30h4h30V14C64,12.2,61.5,11.3,58.3,10.1z M60,15.2v31.6c-2.9-1.2-7.6-2.8-13-2.8s-10.1,1.6-13,2.8
	V15.2c2.1-1,7.2-3.2,13-3.2C52.9,12,57.9,14.2,60,15.2z M19,12.1c1.4,0.1,2.8,0.3,4,0.6v10.1l-2-1l-2,1V12.1z M15,12.1v17.2l6-3l6,3
	V13.9c1.3,0.5,2.3,0.9,3,1.3v31.6c-2.9-1.2-7.6-2.8-13-2.8S6.9,45.6,4,46.8V15.2C5.8,14.3,10,12.5,15,12.1z M4,52v-0.8
	c2.1-1,7.1-3.2,13-3.2c5.9,0,10.9,2.2,13,3.2V52H4z M34,52v-0.8c2.1-1,7.1-3.2,13-3.2c5.9,0,10.9,2.2,13,3.2V52H34z"/>
</svg>
