<svg xmlns="http://www.w3.org/2000/svg" width="16.886" height="20.783" viewBox="0 0 16.886 20.783">
  <path d="M21.587,2.6h-3.9V1.3a1.3,1.3,0,0,0-1.3-1.3h-3.9a1.3,1.3,0,0,0-1.3,1.3V2.6H7.3A1.3,1.3,0,0,0,6,3.9v2.6H7.331l.844,12.47a1.953,1.953,0,0,0,1.948,1.819H18.73a1.976,1.976,0,0,0,1.948-1.819l.877-12.47h1.331V3.9A1.3,1.3,0,0,0,21.587,2.6ZM12.495,1.3h3.9V2.6h-3.9Zm6.917,17.568a.669.669,0,0,1-.649.617H10.124a.667.667,0,0,1-.649-.617L8.63,6.495H20.224ZM21.587,5.2H7.3V3.9H21.587Z" transform="translate(-6)" fill="#fff"/>
  <rect width="8.476" height="1.299" transform="translate(5.519 8.406) rotate(85.601)" fill="#fff"/>
  <rect width="1" height="7" transform="translate(7.714 9.34)" fill="#fff"/>
  <rect width="1.299" height="8.476" transform="translate(11.367 8.406) rotate(4.396)" fill="#fff"/>
</svg>
