<?xml version="1.0" encoding="utf-8"?>
<!-- Generator: Adobe Illustrator 18.0.0, SVG Export Plug-In . SVG Version: 6.00 Build 0)  -->
<!DOCTYPE svg PUBLIC "-//W3C//DTD SVG 1.1//EN" "http://www.w3.org/Graphics/SVG/1.1/DTD/svg11.dtd">
<svg version="1.1" id="Layer_1" xmlns="http://www.w3.org/2000/svg" xmlns:xlink="http://www.w3.org/1999/xlink" x="0px" y="0px"
	 viewBox="0 0 64 64" enable-background="new 0 0 64 64" xml:space="preserve">
<g>
	<g>
		<g>
			<g>
				<path d="M60,64H4c-2.2,0-4-1.8-4-4V9c0-2.2,1.8-4,4-4h56c2.2,0,4,1.8,4,4v51C64,62.2,62.2,64,60,64z M4,9v51h56l0-51H4z"/>
			</g>
		</g>
	</g>
	<g>
		<g>
			<g>
				<rect x="16" width="4" height="14"/>
			</g>
		</g>
	</g>
	<g>
		<g>
			<g>
				<rect x="44" width="4" height="14"/>
			</g>
		</g>
	</g>
	<g>
		<g>
			<g>
				<rect x="2" y="20" width="60" height="4"/>
			</g>
		</g>
	</g>
	<g>
		<g>
			<g>
				<rect x="44" y="32" width="10" height="4"/>
			</g>
		</g>
	</g>
	<g>
		<g>
			<g>
				<rect x="44" y="47" width="10" height="4"/>
			</g>
		</g>
	</g>
	<g>
		<g>
			<g>
				<rect x="27" y="32" width="10" height="4"/>
			</g>
		</g>
	</g>
	<g>
		<g>
			<g>
				<rect x="27" y="47" width="10" height="4"/>
			</g>
		</g>
	</g>
	<g>
		<g>
			<g>
				<rect x="10" y="32" width="10" height="4"/>
			</g>
		</g>
	</g>
	<g>
		<g>
			<g>
				<rect x="10" y="47" width="10" height="4"/>
			</g>
		</g>
	</g>
</g>
</svg>
