<svg id="cart-outline" xmlns="http://www.w3.org/2000/svg" width="33.632" height="34.004" viewBox="0 0 33.632 34.004">
  <path d="M21.188,52a3.188,3.188,0,1,0,3.188,3.188A3.2,3.2,0,0,0,21.188,52Zm0,4.251a1.063,1.063,0,1,1,1.063-1.063A1.066,1.066,0,0,1,21.188,56.251Z" transform="translate(-8.436 -24.372)"/>
  <path d="M48.188,52a3.188,3.188,0,1,0,3.188,3.188A3.2,3.2,0,0,0,48.188,52Zm0,4.251a1.063,1.063,0,1,1,1.063-1.063A1.066,1.066,0,0,1,48.188,56.251Z" transform="translate(-21.091 -24.372)"/>
  <path d="M10.1,22.315H31.241L33.632,4.251H7.173L6.163,0H0V2.125H4.463L8.82,20.456a3.188,3.188,0,0,0,1.275,6.11H30.816V24.441H10.1a1.063,1.063,0,1,1,0-2.125Zm13.283-7.97V20.19H16.471V14.346ZM16.471,12.22V6.376h6.907V12.22Zm-2.125,7.97h-3.4L9.564,14.346h4.782Zm11.158,0V14.346h4.622l-.8,5.844Zm4.888-7.97H25.5V6.376h5.685ZM14.346,6.376V12.22H9.032L7.651,6.376Z"/>
</svg>
