<?xml version="1.0" encoding="utf-8"?>
<!-- Generator: Adobe Illustrator 18.0.0, SVG Export Plug-In . SVG Version: 6.00 Build 0)  -->
<!DOCTYPE svg PUBLIC "-//W3C//DTD SVG 1.1//EN" "http://www.w3.org/Graphics/SVG/1.1/DTD/svg11.dtd">
<svg version="1.1" id="Layer_1" xmlns="http://www.w3.org/2000/svg" xmlns:xlink="http://www.w3.org/1999/xlink" x="0px" y="0px"
	 viewBox="0 0 64 64" enable-background="new 0 0 64 64" xml:space="preserve">
<g>
	<path d="M32,19c-7.2,0-13,5.8-13,13s5.8,13,13,13s13-5.8,13-13S39.2,19,32,19z M32,41c-5,0-9-4-9-9s4-9,9-9s9,4,9,9S37,41,32,41z"
		/>
	<path d="M57,25h-1c-0.5-1.7-1.2-3.4-2.1-5l0.7-0.7c1.3-1.3,2.1-3.1,2.1-4.9s-0.7-3.6-2-4.9c-1.3-1.3-3.1-2.1-5-2.1S46,8.1,44.7,9.4
		L44,10.1c-1.6-0.9-3.3-1.6-5-2.1V7c0-3.9-3.1-7-7-7s-7,3.1-7,7v1c-1.7,0.5-3.4,1.2-5,2.1l-0.7-0.7c-1.3-1.3-3.1-2.1-5-2.1
		s-3.6,0.7-4.9,2.1c-1.3,1.3-2.1,3.1-2.1,4.9s0.7,3.6,2,4.9l0.7,0.7c-0.9,1.6-1.6,3.3-2.1,5H7c-3.9,0-7,3.1-7,7s3.1,7,7,7h1
		c0.5,1.7,1.2,3.4,2.1,5l-0.7,0.7c-1.3,1.3-2.1,3.1-2.1,4.9s0.7,3.6,2,4.9c1.3,1.3,3.1,2.1,5,2.1s3.6-0.7,4.9-2.1l0.7-0.7
		c1.6,0.9,3.3,1.6,5,2.1v1c0,3.9,3.1,7,7,7s7-3.1,7-7v-1c1.7-0.5,3.4-1.2,5-2.1l0.7,0.7c1.3,1.3,3.1,2.1,5,2.1s3.6-0.7,4.9-2.1
		c1.3-1.3,2.1-3.1,2.1-4.9s-0.7-3.6-2-4.9L53.9,44c0.9-1.6,1.6-3.3,2.1-5h1c3.9,0,7-3.1,7-7S60.9,25,57,25z M57,35h-4.2l-0.3,1.6
		c-0.5,2.4-1.5,4.6-2.8,6.7l-0.9,1.4l2.9,2.9c0.6,0.6,0.9,1.3,0.9,2.1s-0.3,1.6-0.9,2.1c-1.1,1.1-3.1,1.1-4.2,0l-2.9-2.9l-1.4,0.9
		c-2.1,1.3-4.3,2.2-6.7,2.8L35,52.8V57c0,1.7-1.3,3-3,3s-3-1.3-3-3v-4.2l-1.6-0.3c-2.4-0.5-4.6-1.5-6.7-2.8l-1.4-0.9l-2.9,2.9
		c-1.1,1.1-3.1,1.1-4.2,0c-0.6-0.6-0.9-1.3-0.9-2.1s0.3-1.6,0.9-2.1l2.9-2.9l-0.9-1.4c-1.3-2.1-2.2-4.3-2.8-6.7L11.2,35H7
		c-1.7,0-3-1.3-3-3s1.3-3,3-3h4.2l0.3-1.6c0.5-2.4,1.5-4.6,2.8-6.7l0.9-1.4l-2.9-2.9c-0.6-0.6-0.9-1.3-0.9-2.1s0.3-1.6,0.9-2.1
		c1.1-1.1,3.1-1.1,4.2,0l2.9,2.9l1.4-0.9c2.1-1.3,4.3-2.2,6.7-2.8l1.6-0.3V7c0-1.7,1.3-3,3-3s3,1.3,3,3v4.2l1.6,0.3
		c2.4,0.5,4.6,1.5,6.7,2.8l1.4,0.9l2.9-2.9c1.1-1.1,3.1-1.1,4.2,0c0.6,0.6,0.9,1.3,0.9,2.1s-0.3,1.6-0.9,2.1l-2.9,2.9l0.9,1.4
		c1.3,2.1,2.2,4.3,2.8,6.7l0.3,1.6H57c1.7,0,3,1.3,3,3S58.7,35,57,35z"/>
</g>
</svg>
