<?xml version="1.0" encoding="utf-8"?>
<!-- Generator: Adobe Illustrator 18.0.0, SVG Export Plug-In . SVG Version: 6.00 Build 0)  -->
<!DOCTYPE svg PUBLIC "-//W3C//DTD SVG 1.1//EN" "http://www.w3.org/Graphics/SVG/1.1/DTD/svg11.dtd">
<svg version="1.1" id="Layer_1" xmlns="http://www.w3.org/2000/svg" xmlns:xlink="http://www.w3.org/1999/xlink" x="0px" y="0px"
	 viewBox="0 0 64 64" enable-background="new 0 0 64 64" xml:space="preserve">
<g>
	<rect x="22" y="38" width="28" height="4"/>
	<rect x="22" y="10" width="17" height="4"/>
	<path d="M45.8,0H18c-2.2,0-4,1.8-4,4v2h-4c-2.2,0-4,1.8-4,4v50c0,2.2,1.8,4,4,4h38c2.2,0,4-1.8,4-4v-4h2c2.2,0,4-1.8,4-4V11.1
		L45.8,0z M47,6.5l3.8,3.5H47V6.5z M48,60H10V10h4v42c0,2.2,1.8,4,4,4h30V60z M18,52V4h25v10h11l0,38H18z"/>
	<rect x="22" y="22" width="28" height="4"/>
	<rect x="22" y="30" width="28" height="4"/>
</g>
</svg>
