<svg xmlns="http://www.w3.org/2000/svg" width="20.605" height="18.545" viewBox="0 0 20.605 18.545">
  <path id="heart" data-name="heart" d="M10.3,21.945l-.354-.258C9.53,21.4,0,14.8,0,9.388V9.034A5.668,5.668,0,0,1,5.666,3.4,5.579,5.579,0,0,1,10.3,5.847a5.649,5.649,0,0,1,10.3,3.187v.354c0,5.377-9.53,12.009-9.948,12.3ZM5.666,4.688A4.376,4.376,0,0,0,1.288,9.034v.354c0,1.932,1.61,4.443,4.6,7.341A47.924,47.924,0,0,0,10.3,20.367a47.924,47.924,0,0,0,4.411-3.638c2.994-2.9,4.6-5.409,4.6-7.341V9.034a4.377,4.377,0,0,0-8.435-1.61L10.3,8.938,9.691,7.457A4.32,4.32,0,0,0,5.666,4.688Z" transform="translate(0 -3.4)" fill="#fff"/>
</svg>
