<svg data-name="User Circled" xmlns="http://www.w3.org/2000/svg" width="46" height="47" viewBox="0 0 46 47">
  <g fill="none" stroke="#000" stroke-width="1.7">
    <ellipse cx="23" cy="23.5" rx="23" ry="23.5" stroke="none"/>
    <ellipse cx="23" cy="23.5" rx="22.15" ry="22.65" fill="none"/>
  </g>
  <path d="M19.456,11.141a6.12,6.12,0,1,0-6.912,0A7.942,7.942,0,0,0,7,18.688V23H25V18.688A7.942,7.942,0,0,0,19.456,11.141ZM11.32,6.109A4.68,4.68,0,1,1,16,10.781,4.667,4.667,0,0,1,11.32,6.109ZM23.56,21.563H8.44V18.688a6.493,6.493,0,0,1,6.48-6.469h2.16a6.493,6.493,0,0,1,6.48,6.469Z" transform="translate(6.541 12)"/>
</svg>
