<?xml version="1.0" encoding="utf-8"?>
<!-- Generator: Adobe Illustrator 18.0.0, SVG Export Plug-In . SVG Version: 6.00 Build 0)  -->
<!DOCTYPE svg PUBLIC "-//W3C//DTD SVG 1.1//EN" "http://www.w3.org/Graphics/SVG/1.1/DTD/svg11.dtd">
<svg version="1.1" id="Layer_1" xmlns="http://www.w3.org/2000/svg" xmlns:xlink="http://www.w3.org/1999/xlink" x="0px" y="0px"
	 viewBox="0 0 64 64" enable-background="new 0 0 64 64" xml:space="preserve">
<g>
	<path d="M54,8H42V4c0-2.2-1.8-4-4-4H26c-2.2,0-4,1.8-4,4v4H10c-2.2,0-4,1.8-4,4v8h4.1l2.6,38.4c0.2,3.1,2.8,5.6,6,5.6h26.5
		c3.1,0,5.8-2.5,6-5.6L53.9,20H58v-8C58,9.8,56.2,8,54,8z M26,4h12v4H26V4z M47.3,58.1c-0.1,1-0.9,1.9-2,1.9H18.7
		c-1,0-1.9-0.8-2-1.9L14.1,20h35.7L47.3,58.1z M54,16H10v-4h44V16z"/>
	<rect x="9" y="37" transform="matrix(7.669654e-02 0.9971 -0.9971 7.669654e-02 59.1978 14.0736)" width="26.1" height="4"/>
	<rect x="30" y="26" width="4" height="26"/>
	<rect x="40" y="26" transform="matrix(0.9971 7.665917e-02 -7.665917e-02 0.9971 3.1133 -3.1049)" width="4" height="26.1"/>
</g>
</svg>
